<?xml version="1.0" encoding="UTF-8" standalone="no"?>
<!-- Created with Inkscape (http://www.inkscape.org/) -->

<svg
   version="1.1"
   id="svg3188"
   width="533.33331"
   height="133.33333"
   viewBox="0 0 533.33331 133.33333"
   sodipodi:docname="KubeFox Horizontal Layout (400 x 100).ai"
   xmlns:inkscape="http://www.inkscape.org/namespaces/inkscape"
   xmlns:sodipodi="http://sodipodi.sourceforge.net/DTD/sodipodi-0.dtd"
   xmlns="http://www.w3.org/2000/svg"
   xmlns:svg="http://www.w3.org/2000/svg">
  <defs
     id="defs3192">
    <clipPath
       clipPathUnits="userSpaceOnUse"
       id="clipPath3204">
      <path
         d="M 0,100 H 400 V 0 H 0 Z"
         id="path3202" />
    </clipPath>
  </defs>
  <sodipodi:namedview
     id="namedview3190"
     pagecolor="#ffffff"
     bordercolor="#000000"
     borderopacity="0.25"
     inkscape:showpageshadow="2"
     inkscape:pageopacity="0.0"
     inkscape:pagecheckerboard="0"
     inkscape:deskcolor="#d1d1d1"
     showgrid="false" />
  <g
     id="g3196"
     inkscape:groupmode="layer"
     inkscape:label="Page 1"
     transform="matrix(1.3333333,0,0,-1.3333333,0,133.33333)">
    <g
       id="g3198">
      <g
         id="g3200"
         clip-path="url(#clipPath3204)">
        <g
           id="g3206"
           transform="translate(66.8751,56.2774)">
          <path
             d="m 0,0 c -4.668,0.826 -8.223,-1.913 -8.223,-1.913 4.671,9.142 17.132,7.096 28.718,1.929 9.346,-4.168 15.14,-5.349 17.384,-4.219 0.056,0.025 0.111,0.05 0.164,0.08 0.04,0.024 0.078,0.05 0.116,0.075 0.032,0.022 0.067,0.04 0.098,0.065 1.05,0.806 1.133,1.694 1.133,1.694 0,0 -9.852,6.289 -10.846,7.729 -0.994,1.441 0.447,2.833 -2.087,4.87 -2.534,2.037 -9.44,5.366 -9.44,5.366 0,0 3.478,3.105 1.429,11.787 -1.194,-3.928 -3.996,-5.057 -6.139,-6.208 0.648,9.726 -7.894,15.496 -7.894,15.496 0,0 -0.688,-6.569 -6.906,-10.676 C -5.981,23.77 -6.981,20.371 -6.539,17.111 -12.553,15.032 -20.463,9.435 -24.499,-0.004 -29.242,-11.096 -28.535,-36.655 1.492,-33.291 -15.222,-30.44 -14.222,-11.113 0,0"
             style="fill:#ffeb01;fill-opacity:1;fill-rule:nonzero;stroke:none"
             id="path3208" />
        </g>
        <g
           id="g3210"
           transform="translate(98.2326,30.0354)">
          <path
             d="m 0,0 c -8.498,0.306 -27.419,5.939 -19.339,17.964 7.09,3.22 17.483,-1.841 22.069,1.956 -4.398,-1.247 -8.17,1.046 -12.308,1.712 -4.335,0.698 -8.967,1.047 -13.131,-0.753 -8.219,-3.148 -13.15,-16.582 -4.636,-22.166 -3.768,4.62 -2.191,11.089 1.605,15.105 C -24.7,0.7 -10.547,-1.022 0,0"
             style="fill:#000000;fill-opacity:1;fill-rule:nonzero;stroke:none"
             id="path3212" />
        </g>
        <g
           id="g3214"
           transform="translate(114.4827,17.1463)">
          <path
             d="m 0,0 c -4.372,-2.028 -7.447,-4.206 -8.853,-5.292 -5.367,-0.55 -10.994,-1.515 -16.727,-3.056 -29.322,-7.885 -47.043,11.495 -49.082,24.852 4.538,-14.646 22.022,-22.18 42.37,-12.407 4.131,1.986 8.016,3.595 11.672,4.881 C -17.661,9.2 -7.658,9.803 -0.298,8.393 -7.87,6.249 -13.877,3.701 -13.949,3.675 l -4.055,-1.73 4.394,-0.362 C -13.53,1.579 -6.856,1.025 0,0"
             style="fill:#ffeb01;fill-opacity:1;fill-rule:nonzero;stroke:none"
             id="path3216" />
        </g>
        <g
           id="g3218"
           transform="translate(149.1151,8.2404)">
          <path
             d="m 0,0 c 0,0 -16.862,5.397 -39.133,3.976 2.156,1.357 5.156,3.008 8.808,4.376 l 3.72,1.394 -3.912,0.698 c -4.523,0.806 -9.486,1.405 -12.976,1.775 3.226,1.183 7.963,2.778 13.04,4.002 l 3.445,0.83 -3.317,1.251 c -4.485,1.688 -11.076,2.099 -16.5,2.092 C -8.733,29.56 0,0 0,0"
             style="fill:#000000;fill-opacity:1;fill-rule:nonzero;stroke:none"
             id="path3220" />
        </g>
        <g
           id="g3222"
           transform="translate(147.1597,35.8153)">
          <path
             d="m 0,0 -12.579,17.274 -4.695,-4.869 V 0 h -8.927 v 40.577 h 8.927 V 22.839 L -0.811,40.577 H 9.97 L -6.55,23.361 10.724,0 Z"
             style="fill:#000000;fill-opacity:1;fill-rule:nonzero;stroke:none"
             id="path3224" />
        </g>
        <g
           id="g3226"
           transform="translate(177.8715,35.8153)">
          <path
             d="M 0,0 V 4.405 C -2.029,1.797 -4.637,-0.58 -9.101,-0.58 c -6.666,0 -10.55,4.406 -10.55,11.536 V 31.07 h 8.811 V 13.738 C -10.84,9.565 -8.869,7.42 -5.507,7.42 -2.145,7.42 0,9.565 0,13.738 V 31.07 H 8.811 V 0 Z"
             style="fill:#000000;fill-opacity:1;fill-rule:nonzero;stroke:none"
             id="path3228" />
        </g>
        <g
           id="g3230"
           transform="translate(216.3733,51.4084)">
          <path
             d="m 0,0 c 0,5.159 -3.478,8.579 -7.594,8.579 -4.115,0 -7.535,-3.42 -7.535,-8.579 v -0.116 c 0,-5.159 3.42,-8.579 7.535,-8.579 4.116,0 7.594,3.362 7.594,8.579 z m -5.333,-16.173 c -4.695,0 -7.594,2.145 -9.681,4.638 v -4.058 h -8.811 v 42.315 h 8.811 V 11.014 c 2.145,2.898 5.101,5.043 9.681,5.043 C 1.913,16.057 8.811,10.376 8.811,0 v -0.116 c 0,-10.376 -6.782,-16.057 -14.144,-16.057"
             style="fill:#000000;fill-opacity:1;fill-rule:nonzero;stroke:none"
             id="path3232" />
        </g>
        <g
           id="g3234"
           transform="translate(243.3053,60.3932)">
          <path
             d="M 0,0 C -3.652,0 -6.029,-2.609 -6.724,-6.608 H 6.55 C 6.029,-2.667 3.71,0 0,0 M 15.013,-12.115 H -6.608 c 0.869,-4 3.652,-6.087 7.593,-6.087 2.957,0 5.101,0.928 7.536,3.189 l 5.043,-4.464 c -2.898,-3.594 -7.072,-5.797 -12.694,-5.797 -9.333,0 -16.232,6.551 -16.232,16.057 v 0.116 c 0,8.869 6.319,16.173 15.362,16.173 10.376,0 15.129,-8.057 15.129,-16.869 v -0.115 c 0,-0.87 -0.058,-1.392 -0.116,-2.203"
             style="fill:#000000;fill-opacity:1;fill-rule:nonzero;stroke:none"
             id="path3236" />
        </g>
        <g
           id="g3238"
           transform="translate(272.5793,68.2765)">
          <path
             d="m 0,0 v -8.637 h 19.361 v -8.115 H 0 V -32.461 H -8.927 V 8.116 H 21.969 V 0 Z"
             style="fill:#000000;fill-opacity:1;fill-rule:nonzero;stroke:none"
             id="path3240" />
        </g>
        <g
           id="g3242"
           transform="translate(320.6225,51.2925)">
          <path
             d="m 0,0 c 0,4.579 -3.304,8.579 -8.173,8.579 -5.044,0 -8.058,-3.884 -8.058,-8.463 V 0 c 0,-4.579 3.304,-8.579 8.174,-8.579 5.043,0 8.057,3.883 8.057,8.463 z m -8.173,-16.173 c -9.623,0 -16.753,7.13 -16.753,16.057 V 0 c 0,8.927 7.188,16.173 16.869,16.173 9.622,0 16.752,-7.13 16.752,-16.057 L 8.695,0 c 0,-8.927 -7.188,-16.173 -16.868,-16.173"
             style="fill:#000000;fill-opacity:1;fill-rule:nonzero;stroke:none"
             id="path3244" />
        </g>
        <g
           id="g3246"
           transform="translate(350.7308,35.8153)">
          <path
             d="M 0,0 -6.26,9.68 -12.521,0 h -9.217 L -10.84,15.767 -21.332,31.07 h 9.449 l 5.796,-9.043 5.855,9.043 H 8.985 L -1.507,15.941 9.449,0 Z"
             style="fill:#000000;fill-opacity:1;fill-rule:nonzero;stroke:none"
             id="path3248" />
        </g>
      </g>
    </g>
  </g>
</svg>
