<?xml version="1.0" encoding="UTF-8" standalone="no"?>
<!-- Created with Inkscape (http://www.inkscape.org/) -->

<svg
   version="1.1"
   id="svg4958"
   width="333.33334"
   height="200"
   viewBox="0 0 333.33334 200"
   sodipodi:docname="XigXog Horizontal Layout (250 x 150).ai"
   xmlns:inkscape="http://www.inkscape.org/namespaces/inkscape"
   xmlns:sodipodi="http://sodipodi.sourceforge.net/DTD/sodipodi-0.dtd"
   xmlns="http://www.w3.org/2000/svg"
   xmlns:svg="http://www.w3.org/2000/svg">
  <defs
     id="defs4962">
    <clipPath
       clipPathUnits="userSpaceOnUse"
       id="clipPath4978">
      <path
         d="M 0,150 H 250 V 0 H 0 Z"
         id="path4976" />
    </clipPath>
    <clipPath
       clipPathUnits="userSpaceOnUse"
       id="clipPath5008">
      <path
         d="M 8.28,99.73 19.275,81.782 8.28,63.834 h 6.867 l 8.564,14.513 c 1.25,2.116 1.25,4.744 0.001,6.86 v 0 L 15.147,99.73 Z"
         id="path5006" />
    </clipPath>
    <linearGradient
       x1="0"
       y1="0"
       x2="1"
       y2="0"
       gradientUnits="userSpaceOnUse"
       gradientTransform="matrix(11.080897,17.865118,17.865118,-11.080897,2.673099,67.206764)"
       spreadMethod="pad"
       id="linearGradient5018">
      <stop
         style="stop-opacity:1;stop-color:#000000"
         offset="0"
         id="stop5014" />
      <stop
         style="stop-opacity:1;stop-color:#444444"
         offset="1"
         id="stop5016" />
    </linearGradient>
    <clipPath
       clipPathUnits="userSpaceOnUse"
       id="clipPath5028">
      <path
         d="M 0,150 H 250 V 0 H 0 Z"
         id="path5026" />
    </clipPath>
    <clipPath
       clipPathUnits="userSpaceOnUse"
       id="clipPath5040">
      <path
         d="M 82.066,86.165 73.501,71.654 C 72.253,69.537 72.252,66.91 73.5,64.793 v 0 L 82.066,50.27 h 6.868 L 77.937,68.218 88.934,86.165 Z"
         id="path5038" />
    </clipPath>
    <linearGradient
       x1="0"
       y1="0"
       x2="1"
       y2="0"
       gradientUnits="userSpaceOnUse"
       gradientTransform="matrix(-11.080897,-17.865118,-17.865118,11.080897,94.539963,82.793236)"
       spreadMethod="pad"
       id="linearGradient5050">
      <stop
         style="stop-opacity:1;stop-color:#000000"
         offset="0"
         id="stop5046" />
      <stop
         style="stop-opacity:1;stop-color:#444444"
         offset="1"
         id="stop5048" />
    </linearGradient>
    <clipPath
       clipPathUnits="userSpaceOnUse"
       id="clipPath5060">
      <path
         d="M 0,150 H 250 V 0 H 0 Z"
         id="path5058" />
    </clipPath>
    <clipPath
       clipPathUnits="userSpaceOnUse"
       id="clipPath5080">
      <path
         d="m 30.053,64.052 4.5,3.603 -4.5,7.345 c -2.455,-4.005 0,-10.948 0,-10.948"
         id="path5078" />
    </clipPath>
    <linearGradient
       x1="0"
       y1="0"
       x2="1"
       y2="0"
       gradientUnits="userSpaceOnUse"
       gradientTransform="matrix(7.0467167,-9.5096464,-9.5096464,-7.0467167,24.906269,76.471283)"
       spreadMethod="pad"
       id="linearGradient5090">
      <stop
         style="stop-opacity:1;stop-color:#8e7515"
         offset="0"
         id="stop5086" />
      <stop
         style="stop-opacity:1;stop-color:#ffeb01"
         offset="1"
         id="stop5088" />
    </linearGradient>
    <clipPath
       clipPathUnits="userSpaceOnUse"
       id="clipPath5100">
      <path
         d="M 0,150 H 250 V 0 H 0 Z"
         id="path5098" />
    </clipPath>
    <clipPath
       clipPathUnits="userSpaceOnUse"
       id="clipPath5112">
      <path
         d="M 62.66,82.346 67.161,75 c 2.453,4.006 0,10.947 0,10.947 v 0 z"
         id="path5110" />
    </clipPath>
    <linearGradient
       x1="0"
       y1="0"
       x2="1"
       y2="0"
       gradientUnits="userSpaceOnUse"
       gradientTransform="matrix(-7.0467167,9.5096464,9.5096464,7.0467167,72.306793,73.528717)"
       spreadMethod="pad"
       id="linearGradient5122">
      <stop
         style="stop-opacity:1;stop-color:#8e7515"
         offset="0"
         id="stop5118" />
      <stop
         style="stop-opacity:1;stop-color:#ffeb01"
         offset="1"
         id="stop5120" />
    </linearGradient>
    <clipPath
       clipPathUnits="userSpaceOnUse"
       id="clipPath5132">
      <path
         d="M 50.157,98.014 41.048,51.986 c 3.73,18.846 11.124,20.757 12.729,33.961 v 0 l 2.388,12.067 z"
         id="path5130" />
    </clipPath>
    <linearGradient
       x1="0"
       y1="0"
       x2="1"
       y2="0"
       gradientUnits="userSpaceOnUse"
       gradientTransform="matrix(-24.157833,15.184924,15.184924,24.157833,67.71666,62.987926)"
       spreadMethod="pad"
       id="linearGradient5142">
      <stop
         style="stop-opacity:1;stop-color:#8e7515"
         offset="0"
         id="stop5138" />
      <stop
         style="stop-opacity:1;stop-color:#ffeb01"
         offset="1"
         id="stop5140" />
    </linearGradient>
  </defs>
  <sodipodi:namedview
     id="namedview4960"
     pagecolor="#ffffff"
     bordercolor="#000000"
     borderopacity="0.25"
     inkscape:showpageshadow="2"
     inkscape:pageopacity="0.0"
     inkscape:pagecheckerboard="0"
     inkscape:deskcolor="#d1d1d1"
     showgrid="false" />
  <g
     id="g4966"
     inkscape:groupmode="layer"
     inkscape:label="Page 1"
     transform="matrix(1.3333333,0,0,-1.3333333,0,200)">
    <g
       id="g4968"
       transform="translate(120.3617,60.3752)">
      <path
         d="M 0,0 -6.541,9.999 -13.124,0 h -7.291 l 10.166,14.832 -9.749,14.332 h 7.499 l 6.125,-9.457 6.166,9.457 H 7.083 L -2.666,14.915 7.5,0 Z"
         style="fill:#000000;fill-opacity:1;fill-rule:nonzero;stroke:none"
         id="path4970" />
    </g>
    <g
       id="g4972">
      <g
         id="g4974"
         clip-path="url(#clipPath4978)">
        <g
           id="g4980"
           transform="translate(130.0201,87.977)">
          <path
             d="M 0,0 V 0 C 0,1.553 1.259,2.812 2.812,2.812 H 3.854 C 5.407,2.812 6.666,1.553 6.666,0 v 0 c 0,-1.553 -1.259,-2.812 -2.812,-2.812 H 2.812 C 1.259,-2.812 0,-1.553 0,0"
             style="fill:#000000;fill-opacity:1;fill-rule:nonzero;stroke:none"
             id="path4982" />
        </g>
        <path
           d="m 130.187,82.707 h 6.333 V 60.376 h -6.333 z"
           style="fill:#000000;fill-opacity:1;fill-rule:nonzero;stroke:none"
           id="path4984" />
        <g
           id="g4986"
           transform="translate(156.8426,72.7076)">
          <path
             d="m 0,0 c 0,3.041 -2.375,5.166 -5.458,5.166 -3.083,0 -5.416,-2.125 -5.416,-5.166 v -0.083 c 0,-3.083 2.333,-5.167 5.416,-5.167 3.083,0 5.458,2.125 5.458,5.167 z m -6.208,-19.082 c -3.624,0 -7.041,0.834 -9.874,2.333 l 2.167,4.75 c 2.291,-1.292 4.583,-2.041 7.541,-2.041 4.333,0 6.374,2.083 6.374,6.082 v 1.084 c -1.875,-2.25 -3.916,-3.625 -7.291,-3.625 -5.208,0 -9.916,3.791 -9.916,10.416 V 0 c 0,6.666 4.792,10.416 9.916,10.416 3.458,0 5.5,-1.459 7.208,-3.333 V 9.999 H 6.25 v -17.29 c 0,-8.416 -4.167,-11.791 -12.458,-11.791"
             style="fill:#000000;fill-opacity:1;fill-rule:nonzero;stroke:none"
             id="path4988" />
        </g>
        <g
           id="g4990"
           transform="translate(185.4486,60.3752)">
          <path
             d="M 0,0 -6.541,9.999 -13.124,0 h -7.291 l 10.166,14.832 -9.749,14.332 h 7.499 l 6.125,-9.457 6.166,9.457 H 7.083 L -2.666,14.915 7.5,0 Z"
             style="fill:#000000;fill-opacity:1;fill-rule:nonzero;stroke:none"
             id="path4992" />
        </g>
        <g
           id="g4994"
           transform="translate(210.2597,71.4994)">
          <path
             d="m 0,0 c 0,3.291 -2.375,6.166 -5.874,6.166 -3.625,0 -5.792,-2.791 -5.792,-6.083 V 0 c 0,-3.291 2.375,-6.166 5.875,-6.166 3.625,0 5.791,2.791 5.791,6.083 z m -5.874,-11.624 c -6.917,0 -12.041,5.124 -12.041,11.541 V 0 c 0,6.416 5.166,11.624 12.124,11.624 C 1.125,11.624 6.25,6.499 6.25,0.083 V 0 c 0,-6.416 -5.167,-11.624 -12.124,-11.624"
             style="fill:#000000;fill-opacity:1;fill-rule:nonzero;stroke:none"
             id="path4996" />
        </g>
        <g
           id="g4998"
           transform="translate(235.4704,72.7076)">
          <path
             d="m 0,0 c 0,3.041 -2.375,5.166 -5.458,5.166 -3.083,0 -5.416,-2.125 -5.416,-5.166 v -0.083 c 0,-3.083 2.333,-5.167 5.416,-5.167 3.083,0 5.458,2.125 5.458,5.167 z m -6.208,-19.082 c -3.624,0 -7.041,0.834 -9.874,2.333 l 2.167,4.75 c 2.291,-1.292 4.583,-2.041 7.541,-2.041 4.333,0 6.374,2.083 6.374,6.082 v 1.084 c -1.875,-2.25 -3.916,-3.625 -7.291,-3.625 -5.208,0 -9.916,3.791 -9.916,10.416 V 0 c 0,6.666 4.792,10.416 9.916,10.416 3.458,0 5.5,-1.459 7.208,-3.333 V 9.999 H 6.25 v -17.29 c 0,-8.416 -4.167,-11.791 -12.458,-11.791"
             style="fill:#000000;fill-opacity:1;fill-rule:nonzero;stroke:none"
             id="path5000" />
        </g>
      </g>
    </g>
    <g
       id="g5002">
      <g
         id="g5004"
         clip-path="url(#clipPath5008)">
        <g
           id="g5010">
          <g
             id="g5012">
            <path
               d="M 8.28,99.73 19.275,81.782 8.28,63.834 h 6.867 l 8.564,14.513 c 1.25,2.116 1.25,4.744 0.001,6.86 v 0 L 15.147,99.73 Z"
               style="fill:url(#linearGradient5018);stroke:none"
               id="path5020" />
          </g>
        </g>
      </g>
    </g>
    <g
       id="g5022">
      <g
         id="g5024"
         clip-path="url(#clipPath5028)">
        <g
           id="g5030"
           transform="translate(19.2757,81.7822)">
          <path
             d="m 0,0 c 2.454,4.005 0,10.947 0,10.947 l -4.129,7.001 h -6.867 z"
             style="fill:#000000;fill-opacity:1;fill-rule:nonzero;stroke:none"
             id="path5032" />
        </g>
      </g>
    </g>
    <g
       id="g5034">
      <g
         id="g5036"
         clip-path="url(#clipPath5040)">
        <g
           id="g5042">
          <g
             id="g5044">
            <path
               d="M 82.066,86.165 73.501,71.654 C 72.253,69.537 72.252,66.91 73.5,64.793 v 0 L 82.066,50.27 h 6.868 L 77.937,68.218 88.934,86.165 Z"
               style="fill:url(#linearGradient5050);stroke:none"
               id="path5052" />
          </g>
        </g>
      </g>
    </g>
    <g
       id="g5054">
      <g
         id="g5056"
         clip-path="url(#clipPath5060)">
        <g
           id="g5062"
           transform="translate(77.9374,68.2179)">
          <path
             d="m 0,0 c -2.454,-4.005 0,-10.947 0,-10.947 l 4.129,-7.001 h 6.867 z"
             style="fill:#000000;fill-opacity:1;fill-rule:nonzero;stroke:none"
             id="path5064" />
        </g>
        <g
           id="g5066"
           transform="translate(41.0483,51.9862)">
          <path
             d="m 0,0 h 6.008 l 9.108,46.028 H 9.109 Z"
             style="fill:#ffeb01;fill-opacity:1;fill-rule:nonzero;stroke:none"
             id="path5068" />
        </g>
        <g
           id="g5070"
           transform="translate(41.0483,92.9476)">
          <path
             d="m 0,0 h -6.867 l -8.565,-14.512 c -1.248,-2.116 -1.249,-4.744 -10e-4,-6.86 l 8.566,-14.523 H 0 l -10.996,17.947 z"
             style="fill:#ffeb01;fill-opacity:1;fill-rule:nonzero;stroke:none"
             id="path5072" />
        </g>
      </g>
    </g>
    <g
       id="g5074">
      <g
         id="g5076"
         clip-path="url(#clipPath5080)">
        <g
           id="g5082">
          <g
             id="g5084">
            <path
               d="m 30.053,64.052 4.5,3.603 -4.5,7.345 c -2.455,-4.005 0,-10.948 0,-10.948"
               style="fill:url(#linearGradient5090);stroke:none"
               id="path5092" />
          </g>
        </g>
      </g>
    </g>
    <g
       id="g5094">
      <g
         id="g5096"
         clip-path="url(#clipPath5100)">
        <g
           id="g5102"
           transform="translate(56.1647,57.0525)">
          <path
             d="m 0,0 h 6.867 l 8.565,14.512 c 1.248,2.116 1.249,4.744 10e-4,6.86 L 6.867,35.895 H 0 L 10.996,17.948 Z"
             style="fill:#ffeb01;fill-opacity:1;fill-rule:nonzero;stroke:none"
             id="path5104" />
        </g>
      </g>
    </g>
    <g
       id="g5106">
      <g
         id="g5108"
         clip-path="url(#clipPath5112)">
        <g
           id="g5114">
          <g
             id="g5116">
            <path
               d="M 62.66,82.346 67.161,75 c 2.453,4.006 0,10.947 0,10.947 v 0 z"
               style="fill:url(#linearGradient5122);stroke:none"
               id="path5124" />
          </g>
        </g>
      </g>
    </g>
    <g
       id="g5126">
      <g
         id="g5128"
         clip-path="url(#clipPath5132)">
        <g
           id="g5134">
          <g
             id="g5136">
            <path
               d="M 50.157,98.014 41.048,51.986 c 3.73,18.846 11.124,20.757 12.729,33.961 v 0 l 2.388,12.067 z"
               style="fill:url(#linearGradient5142);stroke:none"
               id="path5144" />
          </g>
        </g>
      </g>
    </g>
  </g>
</svg>
